# xmcd CD database file
# Copyright (C) 1993-1998 Ti Kan
# 
# Track frame offsets:
#     182
#     17367
#     34502
#     49967
#     69910
#     84405
#     102975
#     120097
#     135642
#     153322
#     170440
#     188437
# 
# Disc length: 2802 seconds
# 
# Revision: 1
# Processed by: cddbd v1.4b41PL1 Copyright (c) Steve Scherf et al.
# Submitted via: DiscPlay 4.0.4
# 
DISCID=830af00c
DTITLE=Colleen Hewett - Tenterfield Dreams-Peter Allen's Musical Journey
DYEAR=1900
DGENRE=
TTITLE0=Tenterfield Saddler
TTITLE1=Queit Please (There's A Lady On Stage)
TTITLE2=Over The Rainbow
TTITLE3=The More I See You
TTITLE4=I Still Call Australia Home
TTITLE5=Arthur's Theme
TTITLE6=One Step Over The Borderline
TTITLE7=I Honestly Love You
TTITLE8=Flyaway
TTITLE9=Don't Cry Out Loud
TTITLE10=Rather Leave While I'm In Love
TTITLE11=My Support
EXTD=
EXTT0=
EXTT1=
EXTT2=
EXTT3=
EXTT4=
EXTT5=
EXTT6=
EXTT7=
EXTT8=
EXTT9=
EXTT10=
EXTT11=
PLAYORDER=
